PathFileType	4	(X/Y/Z)	pose2sim_0-1073.trc
DataRate	CameraRate	NumFrames	NumMarkers	Units	OrigDataRate	OrigDataStartFrame	OrigNumFrames
50	50	7	22	m	50	134	1074
Frame#	Time	Hip			RHip			RKnee			RAnkle			RBigToe			RSmallToe			RHeel			LHip			LKnee			LAnkle			LBigToe			LSmallToe			LHeel			Neck			Head			Nose			RShoulder			RElbow			RWrist			LShoulder			LElbow			LWrist			
		X1	Y1	Z1	X2	Y2	Z2	X3	Y3	Z3	X4	Y4	Z4	X5	Y5	Z5	X6	Y6	Z6	X7	Y7	Z7	X8	Y8	Z8	X9	Y9	Z9	X10	Y10	Z10	X11	Y11	Z11	X12	Y12	Z12	X13	Y13	Z13	X14	Y14	Z14	X15	Y15	Z15	X16	Y16	Z16	X17	Y17	Z17	X18	Y18	Z18	X19	Y19	Z19	X20	Y20	Z20	X21	Y21	Z21	X22	Y22	Z22	
134	2.68	0.10495626114865556	0.8375075374463706	-0.061247304366123856	0.005581971062420152	0.8255306218541664	-0.055477359443242884	-0.010934897512767956	0.44175624355166637	-0.07369679193346669	-0.04160367447934873	0.07364468269845106	-0.10220813760183836	-0.06814551736877465	0.02979593399848466	0.051275489668972475	-0.10709382343079986	0.03104566402776444	-0.0045953612401021405	-0.031813970973413784	0.03643354602479058	-0.1433928424040898	0.2093694340591089	0.8254528254259969	-0.061530413983847	0.22071593780077156	0.44603991661551184	-0.08118103539851448	0.24754982925462357	0.07635603595617048	-0.10805540256028605	0.25243896015457795	0.024947003216574986	0.05743999195102764	0.29665189024026273	0.03069314477901313	0.013035350976377721	0.24105925350724947	0.03786834681203379	-0.14136718483818697	0.11595522574531363	1.4249577647987208	-0.061884926617075744	0.11546923119572589	1.6617286537884692	-0.03932607561447908	0.1101726030089122	1.5425201914172209	0.05340796135926994	-0.05798364277055429	1.3241736775636666	-0.07531731323396425	-0.1415555542976986	1.0655600013543274	-0.05826727249411474	-0.17691237649179106	1.1721366088699843	0.16068228073636776	0.2850540922534644	1.3207401257587124	-0.07918817997864372	0.34775720904401436	1.0676592878091198	-0.07197473704925068	0.38320566782913384	1.1625156318148273	0.15002258800819201
135	2.7	0.10396768692807969	0.839299891075496	-0.05921958826143482	0.005906434286598661	0.8261548772815738	-0.054680461718348915	-0.01054931604688366	0.4442592724580737	-0.07408130579941731	-0.042636651599575096	0.07267269993929762	-0.10376029670342957	-0.07105891366987481	0.030100330200389276	0.04634106196250211	-0.10986573087357249	0.02881552548132627	-0.00962604428038009	-0.03251632107897415	0.036857571263201085	-0.14349382113964881	0.20806395410680772	0.8259561173189846	-0.05855050690204108	0.2209347916096637	0.4471498191743298	-0.08421101977942974	0.247317758262912	0.07675949957395622	-0.10973296515676327	0.25481370561459143	0.026856874893390156	0.05582716458248651	0.29903486778019966	0.029736458904754643	0.011449749222559069	0.24114264925625872	0.03563199659050271	-0.14601422263873975	0.11485418954201872	1.4249084755434633	-0.05814397560267536	0.11448189705436479	1.6661863395408774	-0.03638212048728342	0.10725325657172773	1.5443253386915836	0.05828160428880133	-0.06040746076068121	1.3241692875514752	-0.07468914289951951	-0.1410708927592542	1.0672565452659146	-0.05730666073264979	-0.1773584219617105	1.1788870303304515	0.1593077437199831	0.2850620891798458	1.32190254998514	-0.07502487967291299	0.35301533502902094	1.071587648325187	-0.06630792758010669	0.37973001649924504	1.1711915517152733	0.1523514389729253
136	2.72	0.10463797223138782	0.8438520623944598	-0.05514746693322539	0.004082380693519982	0.829702747177762	-0.04729120087569727	-0.013016443799213443	0.44296509545407814	-0.06814588631027887	-0.04453835568846767	0.07516192131358715	-0.10022244823922635	-0.07338295248579048	0.029305405846644334	0.06075751933092929	-0.11105517796851985	0.030818685508789623	0.0018611712441450993	-0.03550706740554108	0.032662712993457216	-0.14068479443793108	0.20744974586678472	0.8306475195397541	-0.05318372537833846	0.22014821475097981	0.44679490519179554	-0.08109480712101373	0.24855213951395966	0.07190073732105569	-0.11167963687641144	0.254970924894747	0.02861392197951519	0.06292226556320328	0.29359793480639634	0.025826538567660266	0.01532487158233515	0.24330606451546033	0.03186013192330955	-0.1450236436834292	0.11176051815213017	1.4266143413442507	-0.06130583814204037	0.11201120509333827	1.6603107119135538	-0.03600288304287447	0.10644536737095683	1.5485499009724273	0.08914760954315121	-0.06292138599527608	1.3209981570467664	-0.07115384034935401	-0.14143257899802505	1.05974712087474	-0.05507393773558855	-0.16535830069752125	1.195524463155857	0.17166452171946067	0.2848239108170592	1.3210751279831896	-0.07281252490013294	0.3493143709866815	1.0582275407120918	-0.06410500400930325	0.3812276743608438	1.1671550689441343	0.14873209778369642
137	2.74	0.10564704486483475	0.8408076481869066	-0.05376545636712335	0.0033624142903674013	0.8249098355898286	-0.04976199010722752	-0.010112023757757225	0.4427099731511171	-0.07348025652571327	-0.04235321518579567	0.07369162385652511	-0.10533265483739346	-0.07127648231898034	0.03103871055147509	0.04955612104165745	-0.1118139526368225	0.03257822211235742	-0.01190965960916208	-0.03218245333804328	0.03915029005579531	-0.1463196155054382	0.20835982591029206	0.8260328483913928	-0.056301949756347544	0.22269416397649955	0.4470622286020939	-0.08139586257031052	0.24608943460374164	0.07617007992820694	-0.1090476630952363	0.25593622289056994	0.02756787387521378	0.05192154603228616	0.30113289613614547	0.031684978996691246	0.004455627703738402	0.24042171227305872	0.03776892108039349	-0.14565349403776282	0.11509753990661241	1.4228659786334894	-0.06159385214916795	0.1135426638620129	1.6629457570645045	-0.03631929756843816	0.11012502405242153	1.541098564094322	0.05349707880031187	-0.05881721725849954	1.3256213891875883	-0.07098589181829214	-0.13957220908389747	1.0686914025252285	-0.05527497183627225	-0.1705022756386986	1.2000526525303608	0.16184758567331797	0.2869432243837341	1.3198869067887977	-0.07770415080418047	0.34924602212440864	1.0674731895270255	-0.06301803155320818	0.37369903226385554	1.1807287797559691	0.1473718392720213
138	2.76	0.10390164094038806	0.8407938720065053	-0.053521659534956925	0.004486566600950343	0.8286826243310081	-0.05255325456440663	-0.009128532382317167	0.44642587190665944	-0.07286163956572728	-0.04265819319072764	0.07280684510982495	-0.10699875165603387	-0.06903977336904833	0.02748034218346276	0.048801154792012136	-0.10934454375968239	0.030164631495548176	-0.011229006423117095	-0.03330693680401746	0.03544758018484572	-0.14632240989869513	0.20698137266815786	0.8299160241347067	-0.05573680335909864	0.22140764084703649	0.4492078277782042	-0.07788587250204064	0.24809854161655365	0.07667807934570021	-0.11035799348084117	0.25439386329457353	0.027872515886867254	0.047081384050284454	0.3008532467822334	0.030794567962290735	0.0033358391568465828	0.24240993499614752	0.03576010783242627	-0.14288359471006334	0.11369294476342977	1.4234181817971623	-0.05715416080703115	0.11193599186966413	1.6626330471475634	-0.03188271692416271	0.1047768536351865	1.5414809684747106	0.06187439267587194	-0.060527400945461475	1.3248340257613633	-0.07586841376645556	-0.13856260792404532	1.0688731724098626	-0.05191043284150334	-0.17231052453806373	1.2068252289842885	0.1491240043168437	0.285717829507168	1.3202510538334802	-0.07560671913548939	0.3506504763677242	1.0665277858877638	-0.06082105222201792	0.37703546774967517	1.1799683485977377	0.14101410095930983
139	2.78	0.10676558772625461	0.8387692698905828	-0.05107547918643359	0.003054473463705146	0.8255529396106075	-0.04879821781141818	-0.01067180053868834	0.44561671481596654	-0.06854143739852246	-0.04267575868604339	0.07318164429643582	-0.10594260883240733	-0.06732206702889554	0.027824569606286393	0.05095958661586115	-0.10844919310265398	0.030528997100236262	-0.008368422337885357	-0.03225525079351143	0.03874497640646276	-0.14720735401184756	0.2097851632488907	0.8266811358219227	-0.05356232709810073	0.22267253411765642	0.44848945512305366	-0.08020053225368111	0.24815480005574345	0.07872794118924811	-0.11302227641558023	0.2569520954320057	0.02825623295747259	0.048714868548304216	0.2995103672992886	0.03108293826968625	0.002757868412459461	0.2422691576751623	0.038977520911469395	-0.1483486303391523	0.11360766540668615	1.4220308254003868	-0.057143497884262505	0.1156780075175666	1.6598209896492062	-0.03503422283846158	0.10737777266142702	1.541071761142792	0.05597625021786838	-0.06061815756897315	1.323198846684268	-0.0709146423603042	-0.13787341119404298	1.0687598397147118	-0.04487826619782411	-0.16664657197055904	1.2137735211982381	0.14722406849266448	0.28826800175919864	1.3196522080347959	-0.07565120500711817	0.3506086516332809	1.0662269267800166	-0.061033464372655666	0.37289383229376855	1.1866352952578478	0.1370159750958069
140	2.8	0.10350841280342192	0.8463506713930865	-0.0580702008120991	0.0018396721864765667	0.833139433766696	-0.047573130203581955	-0.013504107299082961	0.4454191780164542	-0.06127587006658293	-0.04306767792655386	0.07206521692447859	-0.10336425735021004	-0.06840853767396281	0.029151251839581355	0.06688156976498542	-0.10906742084754129	0.03439014177523336	0.005275350236253531	-0.035352847535673644	0.029657559860121013	-0.14485351934460897	0.20643818195182148	0.8326883115288682	-0.05484710477927996	0.22004961709369053	0.44669196858533156	-0.07916393501867702	0.24835734982696864	0.07136034808957399	-0.11366454359084628	0.25675730604729996	0.026703136134835125	0.06396096751553382	0.29265189544562653	0.02641647196357516	0.01596476939422295	0.24236556008224347	0.033999566195411626	-0.14532958873760982	0.11311795077927655	1.4270952617674393	-0.05259322001998615	0.11565958426893731	1.6581395150772393	-0.031841809154071594	0.10495801515660635	1.5478438388276148	0.08839173842182677	-0.06172768477657094	1.3230661275463629	-0.06745403443329377	-0.1402855059403311	1.0624388238838725	-0.041216010538910684	-0.17647058385398914	1.2199156467124317	0.12097401661630831	0.2829650771530575	1.3200900039920322	-0.07184099721275465	0.3473877808702898	1.0575279229454944	-0.058980816264236235	0.36777058590473666	1.1913124485011561	0.1434897739886162
